<svg xmlns="http://www.w3.org/2000/svg" id="CMYK" viewBox="0 0 1348 367"><defs><style>.cls-1{fill:#fff}.cls-2{fill:#251b5b}.cls-4{fill:#009640}.cls-5{fill:#ffed00}.cls-6{fill:#e30613}</style></defs><path d="M0 0h1348v367H0z" class="cls-1"/><path d="M431 102c-2-25-5-32-22-32h-7v77c0 7 3 8 7 8h12v5h-52v-5h12c4 0 7-1 7-8V70h-7c-17 0-20 7-23 32h-4V65h82v37zM486 160v-5h5c4 0 7-1 7-8v-37c0-3-1-11-10-11-13 0-21 13-21 27v21c0 7 3 8 7 8h5v5h-38v-5h6c4 0 7-1 7-8V77c0-6-3-8-7-8h-6v-4h26v41c4-8 12-14 23-14 12 0 20 9 21 16v39c0 7 3 8 7 8h6v5zM558 161c-23 0-31-17-31-31 0-18 10-38 30-38 17 0 26 16 27 34l-2 3h-42c0 17 7 27 20 27 14 0 19-12 19-21h6c0 13-7 26-27 26zm-1-63c-9 0-16 10-17 25h30c2-10-2-25-13-25zM699 69c-4 0-7 2-7 8v51c0 13-6 34-34 34-23 0-33-14-34-26V77c0-6-3-8-7-8h-10v-5h49v5h-12c-3 0-7 2-7 8v54c0 18 13 24 23 24 14 0 25-8 25-27V77c0-6-3-8-7-8h-11v-5h41v5zM748 160v-5h5c4 0 7-1 7-8v-36c0-4-1-12-10-12-13 0-19 14-19 28v20c0 7 3 8 7 8h4v5h-38v-5h7c4 0 7-1 7-8v-41c0-7-3-8-7-8h-7v-5h25l1 13c4-7 11-14 22-14 12 0 20 9 21 17v38c0 7 3 8 7 8h5v5zM789 160v-5h5c4 0 7-1 7-8v-41c0-7-3-8-7-8h-6v-5h26v54c0 7 3 8 7 8h7v5zm17-79c-4 0-8-4-8-9s4-9 8-9 8 4 8 9-3 9-8 9zM895 98c-5 0-8 3-10 8l-22 54h-5l-20-54c-3-6-7-8-11-8h-5v-5h40v5h-6c-4 0-8 2-5 8l13 38 14-35c2-6 2-11-5-11h-4v-5h28v5zM929 162c-23 0-32-18-32-32 0-19 11-39 31-39 17 0 26 16 26 35l-1 2h-43c0 17 7 29 21 29s19-12 19-21h5c1 12-7 26-26 26zm-1-65c-9 0-16 10-17 25h30c1-10-3-25-13-25zM1008 115a7 7 0 0 1-7-7 11 11 0 0 1 7-11c-11-2-21 11-21 29v21c0 7 3 8 7 8h8v5h-41v-5h6c4 0 7-1 7-8v-41c0-7-3-8-7-8h-6v-5h25v12c4-7 11-14 20-14 6 0 11 6 11 13 0 6-4 11-9 11zM1052 162c-8 0-16-4-19-9l-3 8h-5v-29h5c1 10 8 24 21 24 6 0 12-3 12-10 0-15-38-11-38-34 0-11 8-21 21-21a23 23 0 0 1 17 8l4-7h4v26h-5c-3-14-10-21-19-21-8 0-12 5-12 10 0 17 39 12 39 34 0 12-9 21-22 21zM1083 160v-5h5c4 0 7-1 7-8v-41c0-7-3-8-7-8h-7v-5h27v54c0 7 3 8 7 8h6v5zm17-79c-5 0-8-4-8-9s3-9 8-9 8 4 8 9-4 9-8 9zM1151 161c-6 0-15-4-16-13V99h-10v-5c9-2 15-7 16-30h6v29h20v6h-20v44c0 6 3 10 8 10 6 0 9-5 9-11v-20h6v23c0 7-6 16-19 16zM1243 98c-5 0-8 3-10 8l-25 61c-7 17-13 27-24 27-7 0-12-5-12-12 0-5 3-11 9-11 3 0 6 4 6 8a11 11 0 0 1-4 9c8 2 17-11 22-30l-18-52c-3-7-7-8-11-8h-3v-5h37v5h-5c-4 0-8 2-5 8l12 37 14-34c2-6 2-11-5-11h-5v-5h29v5zM396 302c-27 0-42-25-42-48 0-28 18-51 42-51 31 0 42 31 42 49 0 32-19 50-42 50zm1-93c-21 0-28 22-28 45 0 34 16 42 28 42 16 0 26-17 26-41 0-18-5-46-26-46zM484 224a6 6 0 0 1-6-6c0-3 2-6 6-8a6 6 0 0 0-4-2c-7 0-11 6-11 14a77 77 0 0 0 3 17h16v7h-15v42c0 6 3 8 7 8h8v4h-41v-4h6c4 0 7-2 7-8v-42h-13v-7h12a76 76 0 0 1-1-13c0-12 8-23 21-23 9 0 14 7 14 11 0 7-5 10-9 10zM570 304c-12 0-23-6-27-13l-6 11h-4v-42h5c3 19 12 38 31 38 11 0 19-6 19-16 0-32-56-12-56-51 0-12 9-26 28-26 13 0 20 4 25 10l4-10h4v40h-5c-2-20-10-35-26-35s-20 12-20 17c0 30 57 12 57 48 0 19-14 29-29 29zM649 302v-5h4c4 0 8-1 8-8v-36c0-3-1-11-10-11-13 0-20 13-20 27v20c0 7 3 8 7 8h5v5h-38v-5h6c4 0 7-1 7-8v-74c0-7-3-8-7-8h-6v-5h26v46c4-7 10-13 22-13s19 8 20 16v38c0 7 3 8 7 8h7v5zM722 304c-24 0-32-18-32-32 0-18 11-38 30-38 18 0 27 15 27 34l-2 2h-42c0 18 7 29 20 29 15 0 20-12 20-21h5c0 12-7 26-26 26zm-1-65c-10 0-16 10-18 25h31c1-10-3-25-13-25zM794 221a6 6 0 0 1-6-7c0-3 2-6 6-8l-7-2c-9 0-13 7-13 14l3 17h15v6h-15v48c0 7 3 8 7 8h7v5h-38v-5h4c4 0 7-1 7-8v-48h-11v-6h11a76 76 0 0 1-2-13 23 23 0 0 1 24-24c9 0 17 7 17 12 0 7-5 11-9 11z" class="cls-2"/><path d="M853 225a8 8 0 0 1-8-9 10 10 0 0 1 5-8c-2-3-7-5-11-5-15 0-22 13-19 32h15v6h-14v48c0 7 3 8 7 8h7v5h-39v-5h5c4 0 7-1 7-8v-48h-11v-6h11c-3-17 6-37 31-37 13 0 24 8 24 16 0 7-4 11-10 11zm-13 77v-5h6c4 0 7-1 7-8v-41c0-7-3-8-7-8h-7v-5h27v54c0 7 3 8 7 8h5v5zM913 304c-23 0-31-18-31-32 0-18 11-38 30-38 17 0 27 15 27 34l-2 2h-42c0 18 7 29 20 29 15 0 20-12 20-21h5c0 12-7 26-27 26zm0-65c-10 0-16 10-18 25h31c1-10-3-25-13-25zM944 302v-5h6c4 0 7-1 7-8v-74c0-7-3-8-7-8h-6v-5h26v87c0 7 3 8 7 8h6v5zM1048 302c-5 0-9-5-9-10a22 22 0 0 1-19 11c-18 0-29-15-29-34 0-13 10-35 31-35a19 19 0 0 1 16 8v-27c0-7-3-8-7-8h-14v-5h34v87c0 7 2 8 7 8h6v5zm-26-62c-10 0-18 12-18 28 0 20 8 29 17 29 12 0 18-10 18-27 0-14-4-30-17-30zM1082 303a9 9 0 1 1 9-9 9 9 0 0 1-9 9zM308 227c-2-3-6-8-8-17 0-2-2-5-7-5-6 0-11 3-14 6l-3 8a3 3 0 0 0 1 2l8 9a89 89 0 0 1-43 17c24-23 39-54 39-99V64a442 442 0 0 0-200 0v84c0 45 15 76 39 99-15-2-30-6-43-17l8-9a3 3 0 0 0 1-2l-3-8c-3-3-8-6-14-6-5 0-7 3-7 5-2 9-6 14-8 17-5 5-2 9 0 13 7 9 25 26 63 31a80 80 0 0 1-4 9c-1 3 0 6 5 10 10 9 33 19 63 19s53-10 64-19c4-4 5-7 4-10a80 80 0 0 1-4-9c39-5 57-21 63-32 3-3 5-7 0-12zm-30-8l3-6a17 17 0 0 1 12-6c4 0 5 2 5 5l-3 9-5-8c-3 4-7 8-10 7l-2-1zm2 3a13 13 0 0 0 10-5l3 5a50 50 0 0 1-6 7zm-50 37a33 33 0 0 1 7-2c3 0 3 1 3 3 0 6-11 14-19 17a59 59 0 0 1-5-9l14-9zm-49 27a241 241 0 0 0 34-17 50 50 0 0 0 4 9 95 95 0 0 1-38 8 93 93 0 0 1-37-8 43 43 0 0 0 4-9 241 241 0 0 0 33 17zm-35-18a48 48 0 0 1-4 10c-8-4-20-12-20-18 0-2 0-3 3-3a34 34 0 0 1 8 2l13 9zm-70-39a50 50 0 0 1-7-7l3-5a13 13 0 0 0 10 5zm-6-22a16 16 0 0 1 11 6l3 5-2 2c-3 0-7-3-10-7l-4 8c-3-4-4-8-4-9 0-3 1-5 6-5zm-14 32c-3-5-3-8 0-11 2-2 4-6 6-13 6 13 24 30 60 35l8 6a27 27 0 0 0-5-1c-3 0-6 2-6 4a47 47 0 0 1-1 10c-38-5-55-21-62-30zm191 42c0 2 1 4-4 8-10 9-32 18-62 18s-51-9-62-18c-4-4-4-6-3-8a65 65 0 0 0 5-17c6 10 31 24 60 24s54-14 61-24a66 66 0 0 0 5 17zm59-42c-6 9-23 25-61 30a50 50 0 0 1-2-10c0-2-2-4-5-4a27 27 0 0 0-5 1l7-6c36-5 55-22 60-35 2 7 5 11 7 13 3 3 2 6-1 11z" class="cls-2"/><path fill="#009fe3" d="M181 280c-52-22-96-59-96-134V68c20-6 63-13 96-13s76 7 96 13v78c0 75-44 112-96 134z"/><path d="M184 207l-1 1v-2s0-1 0 0h-1l-1-3s0-1 0 0l-1 2-1 1h-1l1 3a9 9 0 0 0-1-2l-1 1v3l4 3 4-2v-4l-1-1zM153 224s-1 0 0 0a11 11 0 0 0 0 2l-3-1v1h-3c-1 0 0 0 0 0l2 2v1l3 1h-1v1l3 1 4-3-1-4-4-1zM161 257l-2 3v1a7 7 0 0 0 2 0l-3 2h2v1l-1 2v1l3-2v1h1l2-4a9 9 0 0 0 0 2h1l2-3-1-5zM203 263l-2-2a7 7 0 0 0 1 0h1l-3-3-5-1-1 5 2 3h1a9 9 0 0 0 0-1l2 2h1l2 1h1l-1-3 1-1zM214 227v-1h-3c-1 0 0 0 0 0l-1-1-2 1a4 4 0 0 0 1-1l-1-1-3 2-3 4 5 3a41 41 0 0 1 4-1v-1a11 11 0 0 0-1-1l2-1c1 0 0 0 0 0v-1l2-1z" class="cls-4"/><path d="M181 58c5 0 7 3 5 8 1 0 2-1 2-3 4 2 4 6 1 9h5l-2 2a7 7 0 0 1 5-1c2 0 4 1 4 5 0 5-3 6-8 5a4 4 0 0 0 2 2c-4 1-8 0-12-2 2 6 11 8 17 3 3 6 14 7 18 2-4 2-9 0-11-2a7 7 0 0 0 3-1c-4 0-5-2-5-5s2-5 6-5c2 0 3 1 4 3a9 9 0 0 0 0-4c5 0 5 3 6 4 2-5 5-9 13-8a15 15 0 0 0-3 5 7 7 0 0 1 5-2c4 0 6 2 6 5a7 7 0 0 1-3 5 6 6 0 0 0-6-4c-4 0-6 2-7 4 2 3 0 5-3 5a90 90 0 0 1-5 8 8 8 0 0 1-1 7v3a2 2 0 0 1 1 2c0 4-17 6-37 6-11 0-37-1-37-6a2 2 0 0 1 1-2v-3a7 7 0 0 1-1-7l-5-8c-4 0-4-3-3-5a9 9 0 0 0-7-4c-3 0-4 1-6 3a5 5 0 0 1-2-4 5 5 0 0 1 5-5 7 7 0 0 1 5 2 18 18 0 0 0-3-5c8-1 11 3 13 8 1-1 2-4 6-4a8 8 0 0 0 0 4c1-2 2-3 4-3 3 0 7 3 7 6s-2 4-6 4a5 5 0 0 0 3 1c-3 3-7 3-12 2 6 6 16 4 18-2 6 5 16 3 18-3a16 16 0 0 1-12 2 5 5 0 0 0 2-2c-5 1-8 0-8-5 0-3 2-5 4-5a8 8 0 0 1 5 1l-2-2a4 4 0 0 1 5 0c-3-3-3-7 1-9l2 4c-2-6 0-9 5-9z" class="cls-2"/><path d="M131 77a6 6 0 0 0-5-3 4 4 0 0 0-4 4 3 3 0 0 0 1 2c1-1 3-3 8-3zM181 102c-19 0-34 4-34 6s16 5 34 5c15 0 34-2 34-5 0-2-15-6-34-6z" class="cls-5"/><path d="M230 78h-1a17 17 0 0 1 3-7c-7 0-10 6-10 9l-1 1c-1-3-2-5-4-6l-1 4a1 1 0 0 1-1 0c-1-2-2-3-4-3s-3 1-2 2l-1 1c-1 0-2 0-2 2s2 3 5 3c0-1 1 0 0 0a9 9 0 0 1-2 2l5 1a10 10 0 0 0 6-1l1 1c-2 5-14 10-21 1-6 4-15 3-18-5a1 1 0 0 1 2-1 16 16 0 0 0 5 2 11 11 0 0 0 4 0 9 9 0 0 1-1-2h1a4 4 0 0 0 2 0c3 0 5-2 5-2 0-2-1-2-2-2v-1a2 2 0 0 0 1-1c0-1-1-2-3-2a9 9 0 0 0-4 1 1 1 0 0 1-1 0 3 3 0 0 1 1-3c-1 0-5 1-8 4l-1-1c4-2 7-5 7-7a3 3 0 0 0-1-3l-3 3-1-1a16 16 0 0 0 1-4c0-2-1-3-3-3a2 2 0 0 0-2 1 2 2 0 0 0-2-1c-2 0-3 1-3 3a18 18 0 0 0 1 4l-1 1a3 3 0 0 1-3-3l-1 3c0 2 2 4 7 7 0 1 0 2-1 1-3-3-7-4-8-4l1 3a1 1 0 0 1-1 0 8 8 0 0 0-4-1c-1 0-3 1-3 3a2 2 0 0 0 1 1c1 0 1 0 0 0a1 1 0 0 0-1 2c0 1 1 2 3 2a6 6 0 0 0 4 0h1l-1 2a15 15 0 0 0 8-2c1-1 2 0 2 1-1 6-11 10-18 5-7 9-17 5-21-1 0-1 0-2 1-1l6 2 5-1a7 7 0 0 1-3-2 1 1 0 0 1 1-1c4 0 5-1 5-3l-2-2-1-1c1-1 0-2-2-2l-4 3h-1a5 5 0 0 1 0-4c-3 0-4 3-5 6l-1-1c0-3-3-9-10-9a15 15 0 0 1 3 6l-1 1a9 9 0 0 0-5 1 11 11 0 0 1 10 4 5 5 0 0 1 3 4l5 9 6 1c2 0 2 2 1 2l-6 5v2c9-4 21-5 35-5 17 0 27 2 34 5l1-3a47 47 0 0 1-6-4 2 2 0 0 1 0-3l7-1 5-9a7 7 0 0 1 3-3c2-4 5-5 11-4-2-2-5-1-6-1z" class="cls-5"/><path d="M151 98l-5-1h-1a5 5 0 0 0 1 5l5-4zM216 96a50 50 0 0 0-5 1v1l5 4 1-5-1-1zM236 74c-2 0-4 1-5 3 5 0 7 2 8 3a4 4 0 0 0 1-2c0-2-2-4-4-4z" class="cls-5"/><path d="M264 146l9-6-4-2 4-2-2-2-51 32-10-7 36-23c3 0 7 1 11-2l8-5-4-3 4-2-1-2-57 36-11-7 42-27c4 0 7 1 11-1l9-6-4-3 3-2-1-2-62 39-11-6 48-30c3 0 7 0 11-2l8-6-4-2 4-2-1-2-68 42-67-42-2 2 4 2-4 2 9 6c3 2 7 2 11 2l47 30-11 6-62-39-1 2 3 2-3 3 8 6c4 2 8 1 11 1l42 27-11 7-56-36-2 2 4 2-4 3 9 5c3 2 7 2 10 2l37 23-11 7-51-32-1 2 3 2-4 2 9 6c4 2 7 2 11 2l31 19-23 15-5 3-1-1-1-1a34 34 0 0 0-5 2c-3 2-5 6-5 9 3 1 8 0 11-2a33 33 0 0 0 4-2l-2-3 29-18 11 7-29 18-5 3v-1l-2-2a34 34 0 0 0-4 3c-3 1-6 6-5 8 2 2 7 1 10-1a33 33 0 0 0 4-3l-1-2 34-22 11 7-34 21-5 4-1-1-1-2a34 34 0 0 0-4 2c-4 2-6 6-6 9 3 2 8 1 11-1a33 33 0 0 0 4-3l-2-3 40-25 11 7-39 25-5 3-1-1-1-1a34 34 0 0 0-5 2c-3 2-6 6-5 9 3 1 8 0 11-1a33 33 0 0 0 3-3l-1-3 45-28 45 28-1 3a33 33 0 0 0 4 3c3 1 8 2 10 1 1-3-2-7-5-9a34 34 0 0 0-4-2l-2 1-1 1-4-3-40-25 11-7 40 25-2 3a33 33 0 0 0 4 3c3 2 8 3 11 1 0-3-2-7-5-9a34 34 0 0 0-5-2l-1 2-1 1-5-4-34-21 11-7 34 22-1 2a33 33 0 0 0 4 3c3 2 8 3 11 1 0-2-3-7-6-8a34 34 0 0 0-4-3l-1 2-1 1-5-3-28-18 10-7 29 18-1 3a32 32 0 0 0 3 2c3 2 9 3 11 2 1-3-2-7-5-9a34 34 0 0 0-5-2l-1 1-1 1-4-3-23-15 31-19c3 0 7 0 10-2zm-59 13l-11 7-11-7 11-7zm-13 8l-11 7-11-7 11-7zm-11-23l11 7-11 7-11-7zm-13 8l11 7-11 7-11-7zm-24 15l11-7 11 7-11 7zm13 9l11-7 11 7-11 6zm24 15l-11-7 11-7 11 7zm13-9l-11-6 11-7 11 7zm13-8l-10-7 10-7 11 7z" class="cls-2"/><path d="M264 145l8-5-4-3 4-2-1-2-4 2-1-4-9 5c-3 3-4 6-5 9l-32 20-11-7 36-23c4 0 7 1 11-1l9-6-4-2 3-3-1-2-4 3-1-5-8 6c-4 2-5 5-6 8l-37 24-11-7 42-26c3 0 7 0 11-2l8-6-4-2 4-3-2-2-3 3-1-4-9 5c-3 2-4 5-6 9l-42 26-11-6 47-30c4 0 7 0 11-2l8-5-3-3 3-2-1-2-4 2-1-4-9 5c-3 3-4 6-5 9l-48 30-48-30c-1-3-2-6-5-9l-9-5-1 4-4-2-1 2 4 2-4 3 8 5c4 2 7 2 11 2l47 30-11 6-42-26c-1-3-2-7-6-9l-9-5-1 4-3-2-2 2 4 2-4 2 9 6c3 2 7 2 10 2l42 26-11 7-37-24c-1-3-2-6-5-8l-9-6-1 5-4-3-1 2 4 3-4 2 8 6c4 2 7 1 11 1l36 23-11 7-31-20-6-9-9-5-1 4-4-2-1 2 4 2-4 3 8 5c4 2 8 2 11 2l31 19-29 18a27 27 0 0 0-2-2 33 33 0 0 0-4 2c-3 2-6 6-5 9 2 2 7 1 10-1a33 33 0 0 0 4-3 16 16 0 0 0-1-2 23 23 0 0 1-8 4l13-8 24-15 11 7-34 21a27 27 0 0 0-2-2 34 34 0 0 0-4 2c-3 2-6 6-5 9 2 1 7 1 10-1a33 33 0 0 0 4-3 15 15 0 0 0-1-2 23 23 0 0 1-9 3l13-7 30-19 11 7-40 25a26 26 0 0 0-1-2 33 33 0 0 0-5 2c-3 2-5 6-5 9 3 1 8 0 11-2a32 32 0 0 0 3-3 16 16 0 0 0-1-1 23 23 0 0 1-8 3l13-7 35-23 11 7-45 28a27 27 0 0 0-2-2 33 33 0 0 0-4 2c-3 2-6 6-5 9 2 2 7 1 10-1a33 33 0 0 0 4-3 16 16 0 0 0-1-2 23 23 0 0 1-8 4h-1l14-8 40-25 41 25 13 8a23 23 0 0 1-9-4 17 17 0 0 0-1 2 33 33 0 0 0 4 3c3 2 8 3 10 1 1-3-2-7-5-9a33 33 0 0 0-4-2 27 27 0 0 0-2 2l-45-28 11-7 35 23 14 7h-1a23 23 0 0 1-8-3 16 16 0 0 0-1 1 33 33 0 0 0 4 3c3 2 8 3 10 2 1-3-2-7-5-9a33 33 0 0 0-4-2 26 26 0 0 0-2 2l-40-25 11-7 30 19 13 7a23 23 0 0 1-9-3 16 16 0 0 0-1 2 33 33 0 0 0 4 3c3 1 8 2 11 1 0-3-2-7-5-9a34 34 0 0 0-5-2 27 27 0 0 0-2 2l-33-21 10-7 25 15 13 8a23 23 0 0 1-9-4 16 16 0 0 0-1 2 33 33 0 0 0 4 3c3 2 8 3 10 1 1-3-2-7-5-9a33 33 0 0 0-4-2 27 27 0 0 0-2 2l-29-18 31-19c4 0 7 0 11-2zm-59 13l-11 7-11-7 11-7zm-13 8l-11 7-11-7 11-7zm-11-23l11 7-11 7-11-7zm-13 8l11 7-11 7-11-7zm-24 15l11-7 11 7-11 7zm13 9l11-7 11 7-11 6zm24 15l-11-7 11-7 11 7zm13-9l-11-6 11-7 11 7zm13-8l-11-7 11-7 11 7z" class="cls-1"/><path d="M121 98h-1a33 33 0 0 1 0 4l1 1v-5zM125 105a22 22 0 0 0-1-5h-1a41 41 0 0 1 1 4zM130 105a25 25 0 0 1 0 3l1 1a15 15 0 0 0-1-4s-1-1 0 0zM128 107a26 26 0 0 0-1-5h-1a31 31 0 0 1 1 4zM116 105l4-1-1-1-3 2c-1 0 0 0 0 0zM119 107a27 27 0 0 0 5-1l-1-1-5 2h1zM126 110v1a18 18 0 0 0 4-1h-1a30 30 0 0 1-3 0zM122 109a30 30 0 0 0 5-1h-1a37 37 0 0 1-4 1c-1 0 0 0 0 0zM113 110a33 33 0 0 1 0 4h1l-1-4zM116 112a41 41 0 0 1 0 4h1a22 22 0 0 0-1-4s0-1 0 0zM122 117a25 25 0 0 1 1 3l1 1a15 15 0 0 0-2-4c0-1 0-1 0 0zM119 114s0-1 0 0a31 31 0 0 1 0 4l2 1a26 26 0 0 0-2-5zM108 117l5-1-1-1-4 2zM111 119a27 27 0 0 0 5-1l-1-1-4 1v1zM118 122c-1 0 0 0 0 0a18 18 0 0 0 5 0l-1-1a30 30 0 0 1-4 1zM114 120v1a30 30 0 0 0 6-1l-2-1a37 37 0 0 1-4 1zM106 122h-1a33 33 0 0 1 0 3l1 1v-4zM108 123a41 41 0 0 1 0 5h1a22 22 0 0 0 0-4l-1-1zM115 128a25 25 0 0 1 0 4h1a15 15 0 0 0-1-4s-1 0 0 0zM112 126l-1-1a31 31 0 0 1 1 5h1a26 26 0 0 0-1-4zM101 129l4-2h-1l-3 1v1zM104 131a27 27 0 0 0 5-1l-2-1-4 1 1 1zM111 134c-1 0-1 0 0 0a18 18 0 0 0 4 0l-1-1a30 30 0 0 1-3 1zM106 132l1 1a30 30 0 0 0 5-1l-1-1a37 37 0 0 1-5 1zM98 133a33 33 0 0 1-1 4l1 1v-5zM102 140a22 22 0 0 0-1-5h-1a41 41 0 0 1 1 4zM107 140a25 25 0 0 1 1 3l1 1a15 15 0 0 0-2-4s-1-1 0 0zM104 137a31 31 0 0 1 0 4l1 1a25 25 0 0 0-1-5s-1 0 0 0zM96 138l-3 2 4-1zM100 141l-4 1c-1 0 0 0 0 0a27 27 0 0 0 5-1zM103 145v1a18 18 0 0 0 5-1h-1a29 29 0 0 1-4 0zM103 143a37 37 0 0 1-4 1c-1 0 0 0 0 0a31 31 0 0 0 5-1zM242 98h-1v5l1-1a33 33 0 0 1 0-4zM239 100a22 22 0 0 0-1 5l1-1a41 41 0 0 1 0-4zM232 105a15 15 0 0 0-1 4l1-1a25 25 0 0 1 1-3h-1zM236 102h-1a26 26 0 0 0-1 5l1-1a31 31 0 0 1 1-4zM246 105h1l-4-2-1 1 4 1zM244 107l-4-2-1 1a27 27 0 0 0 5 1zM237 110a30 30 0 0 1-4 0h-1a18 18 0 0 0 4 1l1-1zM240 109h1a37 37 0 0 1-5-1h-1a30 30 0 0 0 5 1zM249 110v4h1a33 33 0 0 1-1-4zM247 112h-1a22 22 0 0 0-1 4h1a40 40 0 0 1 1-4zM240 117a15 15 0 0 0-1 4l1-1a25 25 0 0 1 0-3c1-1 0-1 0 0zM243 114a26 26 0 0 0-1 5l1-1a31 31 0 0 1 0-4c1-1 0 0 0 0zM254 117s1 0 0 0l-3-2-1 1 4 1zM251 119v-1l-4-1-1 1a27 27 0 0 0 5 1zM244 122a30 30 0 0 1-4-1l-1 1a18 18 0 0 0 5 0s1 0 0 0zM248 120a37 37 0 0 1-4-1l-1 1a30 30 0 0 0 5 1v-1zM257 122c0-1 0 0 0 0l-1 4 1-1a33 33 0 0 1 0-3zM254 123v1a22 22 0 0 0-1 4l1-1a40 40 0 0 1 0-4zM247 128a15 15 0 0 0-1 4h1a25 25 0 0 1 1-4h-1zM250 126a26 26 0 0 0-1 4h1a32 32 0 0 1 1-5l-1 1zM261 129l1-1-4-1h-1l4 2zM259 131v-1l-4-1-1 1a27 27 0 0 0 5 1zM252 134a30 30 0 0 1-4-1l-1 1a18 18 0 0 0 5 0s1 0 0 0zM256 132a37 37 0 0 1-5-1l-1 1a30 30 0 0 0 6 1v-1zM265 133h-1v5l1-1a33 33 0 0 1 0-4zM261 135a22 22 0 0 0 0 5l1-1a40 40 0 0 1 0-4h-1zM255 140a15 15 0 0 0-1 4l1-1a25 25 0 0 1 1-3h-1zM258 137a26 26 0 0 0-1 5l1-1a31 31 0 0 1 1-4h-1zM269 140l-3-2-1 1 4 1s1 0 0 0zM263 141h-1a27 27 0 0 0 4 1h1l-4-1zM259 145a29 29 0 0 1-3 0h-1a18 18 0 0 0 4 1v-1zM259 143h-1a30 30 0 0 0 5 1h1a37 37 0 0 1-5-1zM214 226h-3c-1 0 0 0 0 0l-1-1-2 1a4 4 0 0 0 1-1l-1-1-3 1c-1-5-8-14-19-14a9 9 0 0 0-1 1v-4l-1-1-1 1v-2c0-1 0-1 0 0h-1l-1-3h-1l-1 2v1h-1l1 3a9 9 0 0 0-1-2l-1 1v3c-8 0-19 6-20 14l-4-1h-1a11 11 0 0 0 1 2l-3-1v1h-3v1l2 1v1l3 1h-1v1l2 1-1 8c0 10 3 16 9 18l-2 2v1a7 7 0 0 0 2 0l-3 2h1l1 1-1 3c0 1 0 0 0 0l3-2v1h1l2-4a9 9 0 0 0 0 2h1l1-2c2 4 8 5 15 5 8 0 11-2 13-4l1 2h1a9 9 0 0 0 0-1l2 2c1 0 0 0 0 0l1-1 2 2c1 0 1 0 0 0v-3l1-1-2-2a7 7 0 0 0 1 0h1l-2-3c4-1 10-9 10-19a9 9 0 0 0-3-7h3v-1a11 11 0 0 0-1-1l2-1v-1l2-1v-1zm-62 2l5 1a4 4 0 0 0-3 2h-2l1-1-1-1h-2l1-1a25 25 0 0 0-3-2h4-1 3v-1a21 21 0 0 0 3 1 4 4 0 0 0 1 3l-5-2c-1 0-2 0-1 1zm14 35v-2l-1 1-2 3v-1l-3 2a17 17 0 0 0 1-3h-1l2-2v-1h-2l2-2a9 9 0 0 0 1 0 6 6 0 0 0 3-1l-4 5h1l4-4a6 6 0 0 0 0 3l-1 2zm16-50l-1-5s0-1 0 0v5a4 4 0 0 0-3-2v-3l1 1c0 1 1 1 0 0v-3l1 1a27 27 0 0 0 1-3 17 17 0 0 0 1 3h1l-1 2h1a8 8 0 0 0 1-1 23 23 0 0 0 0 4 4 4 0 0 0-2 1zm20 47h-2v1a26 26 0 0 1 2 2h-1a19 19 0 0 1 1 3 23 23 0 0 0-3-2v1l-1-2h-1a11 11 0 0 0 0 1l-2-2a8 8 0 0 0 1-3l3 4h1l-3-5a5 5 0 0 0 2 1 5 5 0 0 0 1 0l2 1zm8-31h1l-2 1c-1 0 0 0 0 0l1 1-3 1a7 7 0 0 0-3-1l5-3s1 0 0 0l-6 2a4 4 0 0 0 2-4l3-1-1 1 1 1 2-1v1h3a16 16 0 0 0-3 2z" class="cls-2"/><path d="M189 250c1 1 5 6 5 9 0 5-4 7-12 7-10 0-14-4-14-7s3-7 5-9c1-2-1-3-1-1s-5 8-8 8c-8 0-11-11-11-19 0-5 2-8 5-8l10 4c2 1 3-1 1-1-5-1-11-3-11-7 0-7 14-14 18-14s5 6 5 14c0 2 1 2 1 0v-9c-1-2 1-4 4-4 8 0 18 8 18 13 0 3-5 6-11 7-2 0-1 2 1 1l9-2c3 0 6 2 6 7 0 11-6 19-10 19s-7-5-9-9c0-1-1-1-1 1z" class="cls-1"/><path d="M184 225v-6c0-3 1-4 3-4 3 0 5 6 8 3-1 5 6 5 6 8 0 2-4 5-8 5-1 0-1 0 0 0 2 0 9-1 9-5 0-3-6-3-6-6a6 6 0 0 1 0-2h-1a2 2 0 0 1-1 0c-3 0-5-4-7-4s-4 2-4 5l1 7v-1zM164 230l6 1c1 0 0 0 0 0l-6-2c-2-1-3-2-3-4 1-2 7-3 6-7 4 3 6-4 9-3 4 1 2 8 2 10 0 1 0 1 0 0 0-2 2-10-2-11-3-1-5 5-8 4a9 9 0 0 1-1-1l-1 1a2 2 0 0 1 0 1c0 3-5 4-6 6 0 1 0 3 4 5zM170 246l-3 5c-2 2-4 2-5 2-2-2-1-8-5-8 4-3-2-7 0-9s7-1 10 1c1 1 1 0 0 0-2-2-9-5-11-2s3 6 1 9a5 5 0 0 1-1 1v1a2 2 0 0 1 2 0l3 7c1 1 5 1 7-1l3-6h-1zM187 251h-1l4 5c1 2 2 4 0 5s-7-2-8 2c-2-5-8-1-10-3-1-2 0-6 3-9 1 0 0 0 0 0-2 2-6 7-3 10 2 2 7-1 9 2a7 7 0 0 1 0 1h1a3 3 0 0 1 1-2c2-1 7 1 8-1 2-1 2-3 0-6l-4-4zM206 246a2 2 0 0 1-1-1c-1-2 1-6 1-8-1-3-3-4-6-2a19 19 0 0 1-5 1c-2 0-1 1 0 1a16 16 0 0 0 6-1c2-1 3-1 4 1s-3 7 0 9c-5 0-3 7-6 7-2 1-5-2-7-6v1c0 2 4 8 8 6 3-1 1-6 4-7a7 7 0 0 1 2 0v-1z" class="cls-2"/><path d="M175 220h-1c0 1-1 7 1 10 0-2-5-8-6-9s-1 0-1 0a101 101 0 0 0 7 9l-9-4a54 54 0 0 1 9 4 17 17 0 0 0-2 2 10 10 0 0 0-2 7 10 10 0 0 0 0 2c-4 0-8-2-9-3l-1 1 9 3-10 1v1a101 101 0 0 0 10-2l-7 6h1l7-6a9 9 0 0 0 5 5 14 14 0 0 0 5 2 21 21 0 0 1-5 8v1c1-1 5-5 5-9v11h1a102 102 0 0 0 0-11l4 9 1-1c-2-1-4-5-5-8 3 0 6-2 8-4a17 17 0 0 0 1-2 22 22 0 0 1 6 6h1c-1-1-4-6-7-7l10 3c1 0 1 0 0 0a100 100 0 0 0-10-3l9-2v-1a52 52 0 0 1-9 2 10 10 0 0 0-2-10 6 6 0 0 0-1 0 23 23 0 0 1 8-4v-1l-8 4 5-8v-1a101 101 0 0 0-6 9 27 27 0 0 0 1-9h-1a69 69 0 0 1-1 9 13 13 0 0 0-5-2 8 8 0 0 0-5 2c-2-3-2-9-1-10zM138 82c0-3-2-7-3-8h-1l3 7 1 1zM181 90a2 2 0 0 0-1 0l-4 3a1 1 0 0 0 0 1 2 2 0 0 0 0 1l4 3a2 2 0 0 0 2 0l4-2a1 1 0 0 0 0-2 2 2 0 0 0 0-1 31 31 0 0 1-4-3 2 2 0 0 0-1 0zM160 99l7-1a4 4 0 0 1 1-1 17 17 0 0 0 0-3 3 3 0 0 1-2-1l-7 1a3 3 0 0 1-1 1v3a2 2 0 0 1 2 1zM181 81l2-2c0-2-1-3-2-3a2 2 0 0 0-2 3l2 2zM177 79v-1h-9c-1 0-1 0 0 0l9 1zM182 74zM186 79l9-1h-10l1 1zM150 81l-9 3c0 1 0 0 0 0l9-3zM227 74c-1 1-3 5-3 8l1-1a25 25 0 0 1 3-7h-1zM212 81l9 3v-1l-9-2zM194 97a4 4 0 0 1 1 1l7 1a2 2 0 0 1 1-1l1-3a3 3 0 0 1-2-1l-6-1a3 3 0 0 1-2 1 17 17 0 0 0 0 3zM181 104c-14 0-30 2-30 4l2 1-1-1c0-1 13-3 29-3 19 0 29 2 29 3l-1 1c-1 0 0 1 0 0l3-1c0-2-11-4-31-4zM230 198l-4-72-1-1h-3a17 17 0 0 0 0-2h-3v-4a37 37 0 0 1-9 1l-19-2a25 25 0 0 0-9 1 2 2 0 0 1-2 0 17 17 0 0 0-7-1c-6 0-14 3-22 3a20 20 0 0 1-8-2l-1 3-2-1-1 1v2h-2l-1 1-6 74c0 2 1 2 3 2 4-2 24-8 40-6-1 5 17 5 16 0 15-2 38 5 39 5s2 0 2-2z" class="cls-2"/><path d="M179 193c-2-1-6-2-14-2-14 0-23 5-30 4l-1-1 5-69h-1-1l-5 73 1 1c1 0 17-5 32-5h9l1 1c-1 4 14 3 13 0l1-1a55 55 0 0 1 8 0c12 0 30 4 30 4l1-1-4-70v-1h-2l4 68-1 1a24 24 0 0 1-4 0c-6 0-16-4-26-4a35 35 0 0 0-11 2h-5z" class="cls-5"/><path d="M181 122a1 1 0 0 0-1-1 9 9 0 0 0-6-2c-8 0-15 3-23 3a31 31 0 0 1-7-1l-4 68c6 2 13-3 26-3a32 32 0 0 1 15 3 2 2 0 0 0 2 0c2-1 8-3 14-3 9 0 18 5 23 3 1-22-3-49-3-67h-7c-7 0-12-3-19-3a14 14 0 0 0-8 2v1l-1 65h-1v-65z" class="cls-1"/><path d="M221 125l-1-1h-1l3 67c-6 2-15-3-25-3s-14 2-14 3a2 2 0 0 1-2 0c-2-1-8-3-15-3-15 0-19 4-28 3l4-68h-1l-5 70c9 1 16-3 29-3l15 2a4 4 0 0 0 4 0 27 27 0 0 1 11-2c12 0 22 5 29 4l1-1-4-68z" class="cls-1"/><path d="M150 143l-1 1a9 9 0 0 0-2 2v-2a36 36 0 0 0-4 1s0 1 0 0c2 0 2 0 2 2l-1 17h4c2 1 5-8 6-10 0-7-2-10-4-11zm-1 20a1 1 0 0 1-1 0l-1-1a356 356 0 0 0 2-16c1 0 2 4 2 11l-2 6zM190 143h-1a10 10 0 0 0-2 2v-1a33 33 0 0 0-4 1l2 2v17c0 1 0 0 0 0h4c2 0 5-7 5-10 0-7-2-10-4-11zm-1 20l-2-1a395 395 0 0 0 2-17c1 0 2 3 2 11 0 2 0 5-2 7z" class="cls-6"/><path d="M158 150a37 37 0 0 0-4 2l1 2 1 9h1a89 89 0 0 0 1-12v-1zM155 147l1 1h1v-3a17 17 0 0 0-2 1c-1 0 0 0 0 0v1zM161 153a2 2 0 0 1 0-1c0-1 0 0 0 0a6 6 0 0 0 2 1 1 1 0 0 0 1 0 4 4 0 0 0 1-1 22 22 0 0 1-3-2c-3 2-3 3-3 4 0 4 5 4 5 6l-2 2-2-2s0-1 0 0a17 17 0 0 1-2 1v1a4 4 0 0 0 4 1c2 0 3-3 3-5s-4-3-4-5zM172 160l-2 1c-1 0-2-1-2-5a5 5 0 0 1 1-3 5 5 0 0 0 1 1 1 1 0 0 0 1 0 4 4 0 0 0 1-1 18 18 0 0 1-2-2h-1l-3 6c0 3 1 6 3 6s2-1 3-3zM179 160a3 3 0 0 1-2 2c-1 0-2-1-2-3l4-5-3-3a1 1 0 0 0-1 0 10 10 0 0 0-3 6c0 3 2 6 4 6s3-1 4-3h-1zm-5-4a7 7 0 0 1 1-4h1a3 3 0 0 1 1 2l-3 4a16 16 0 0 1 0-2zM199 151c-2 0-4 3-4 6s1 6 3 6 4-4 4-6-1-6-3-6zm0 10c-1 0-3-2-3-6l2-3c1 0 3 3 3 7l-2 2zM210 160a2 2 0 0 1-2 1c-1 0-3-2-3-6a3 3 0 0 1 1-3l2 2a1 1 0 0 0 1 0 4 4 0 0 0 1-1h-1a12 12 0 0 1-1-2h-1a9 9 0 0 0-4 6c0 3 2 6 4 6s2-1 3-2v-1zM218 160a3 3 0 0 1-3 1c-1 0-2-1-2-3l5-3a6 6 0 0 0-3-4 1 1 0 0 0-1 0 10 10 0 0 0-4 7c0 3 2 5 4 5s3-1 4-3zm-6-4a5 5 0 0 1 2-4 3 3 0 0 1 1 3l-3 3a13 13 0 0 1 0-2z" class="cls-2"/><path d="M180 245l-1 1a1 1 0 0 0 2 2 1 1 0 0 0 1-2 2 2 0 0 0-2-1zM181 237a2 2 0 0 0-1 1 2 2 0 0 0 1 2 2 2 0 0 0 2-2 2 2 0 0 0-2-1zM177 236l-1 1 1 2a2 2 0 0 0 1-2l-1-1zM178 240a2 2 0 0 0-2 1l2 2a1 1 0 0 0 0-3zM182 241a1 1 0 0 0-1 2 1 1 0 0 0 1 1 1 1 0 0 0 0-3zM186 240a1 1 0 1 0-2 0 1 1 0 0 0 1 1 1 1 0 0 0 1-1zM185 237a1 1 0 0 0 1-1 2 2 0 0 0-2-2l-1 2a1 1 0 0 0 2 1zM189 237a1 1 0 0 0 0-3 1 1 0 0 0-2 1 1 1 0 0 0 2 2zM185 233a1 1 0 1 0-1-1 1 1 0 0 0 1 1zM189 239a1 1 0 0 0-1 2l1 1 1-2a1 1 0 0 0-1-1zM186 243l-1 2 1 1a2 2 0 0 0 2-1l-2-2zM176 243a1 1 0 0 0-2 2 1 1 0 0 0 2 1 2 2 0 0 0 1-1l-1-2zM173 239a1 1 0 0 0-1 2 1 1 0 0 0 1 1 1 1 0 0 0 0-3zM174 237a2 2 0 0 0 1-2 1 1 0 1 0-3 0l2 2zM181 232a1 1 0 1 0-1-1 1 1 0 0 0 1 1zM177 233a1 1 0 0 0-1-2 1 1 0 0 0-1 1 1 1 0 0 0 2 1zM180 236a1 1 0 1 0-1-2 1 1 0 0 0 1 2z" class="cls-5"/><path d="M123 287c-2-2-3-6-3-9 1-3 3-5 6-3a7 7 0 0 1 2 3l1-1-1 5h-1l-1-6c-1-1-3 0-4 3 0 3 0 6 2 7s2 1 3-1h1c-1 3-3 3-5 2zM134 293c-4-1-5-5-4-8 0-3 3-5 6-4 4 2 4 6 4 8-1 4-3 6-6 4zm2-11c-2-1-3 0-4 4s1 6 2 6c2 1 3 0 3-3 1-4 0-6-1-7zM152 295h-1l-1 5v-1l-1-1-3 1c-3-2-5-5-4-8s3-6 7-5a5 5 0 0 1 2 3l1-1h1l-2 5v-1c0-2 0-4-2-5-1 0-4 0-5 5l2 6a2 2 0 0 0 3-1v-2-1l-1-1 5 1v1zM166 292l-1 1-1 10h-1l-5-10-1 7v1h1v1l-5-1 1-1h1v-1l2-8-1-1h-1v-1l4 1 5 9v-7-1h-2l1-1 4 1v1zM173 304c-4 0-5-4-5-7s3-6 6-6c4 1 6 5 5 7 0 3-2 6-6 6zm1-12c-1 0-3 1-3 6-1 4 1 5 2 5 2 0 3-2 4-5 0-4-1-6-3-6zM187 304a3 3 0 0 1-4-1v1h-1v-5h1c0 2 1 4 4 4a2 2 0 0 0 2-2c0-3-7-1-7-6a4 4 0 0 1 4-4 3 3 0 0 1 3 2v-2h1v5h-1c0-2-1-4-3-4a2 2 0 0 0-2 2c0 3 7 1 7 6a4 4 0 0 1-4 4zM199 303c-3 0-5-2-6-5 0-4 2-7 6-8a4 4 0 0 1 3 1v-1l1-1v6h-1c0-3-1-4-3-4s-3 3-3 6 2 5 4 5 3-2 3-4l1-1c0 4-2 6-5 6zM210 289v5-1c2 0 2 0 2-3h1v7c-1-3-1-3-3-3v5h3c2-1 2-2 3-5l1 4-11 4v-1h1l1-2-1-8-1-1h-1v-1l10-3 1 5h-1c0-3-1-3-3-3l-2 1zM219 298v-1l1-1 1-1-1-8-1-1-1 1v-1l7-3c2-1 3-1 4 1a4 4 0 0 1-2 4l2 3v1a1 1 0 0 0 1-1l-1-2 1-1 1 3-2 3c-1 0-3 0-3-2s-1-3-2-2h-1v4l1 1 1-1 1 1-7 3zm4-14a1 1 0 0 0-1 1l1 4h1a3 3 0 0 0 2-4c0-2-2-1-3-1zM239 274l1 4h-1c0-3-1-3-2-2l-2 2a1 1 0 0 0 0 1v3h1l1-4v-1l2 7h-1c0-2-1-2-2-1v4h1l2-1c1-1 2-2 1-5l1-1 1 4a69 69 0 0 1-9 7l1-1v-2l-1-8h-3l9-6zM63 241a4 4 0 0 1 0-4v-4l-1-1-1 3a1 1 0 0 0 0 1l1 2h-1l-4-5 1-1v1h1l4-7a1 1 0 0 0 0-1l-1-1v-1l5 6a5 5 0 0 1 1 5c-1 1-2 2-3 1 1 2 0 2-1 5v1h1l1-2h1l-1 3c-1 0-2 1-3-1zm2-12v-1h-1l-1 3 1 1c1 2 2 1 2 0a3 3 0 0 0-1-3z" class="cls-2"/><path d="M65 243h3l4-7-1-2v-1l8 6-2 4h-1v-5l-2-1-2 4c1 1 2 1 3-1h1l-3 6-1-1v-3l-1-1-1 4v1l2 1c1 1 2 1 3-1h1l-2 4zM84 256a2 2 0 0 1-1-3v-4l-1-1-2 4v1l1 1-6-3 1-1 1 1 1-1 3-7v-2h-1v-1l7 4a3 3 0 0 1 1 4 3 3 0 0 1-3 2v5h1l1-2h1l-1 3h-3zm1-12l-1-1v1l-2 3 1 1a2 2 0 0 0 3-1 2 2 0 0 0-1-3zM101 250l-2 1-7 9-1-1 1-11-1-1-1-1 6 2h-1l-1 1v7l4-6v-1h-1v-1l4 2zM107 264l1-1h2l2-7-7 8-1-1v-9l-2 7v1h1v1l-5-1v-1h1l2-1 2-8v-1h-1v-1l5 1v9l6-7h4v1h-1l-1 1-3 8 1 1h1l-1 1zM255 264c-4 1-6-2-7-5s1-7 4-7a4 4 0 0 1 3 0v-1h1l1 5h-1c-1-2-2-4-4-3s-2 2-1 6c0 3 2 5 4 4s3-2 2-4h1c1 3-1 5-3 5zM264 261l1-1v-1l-1-2-3 1v2l1 1h1v1l-4 1v-1h1v-12l2-1 6 9 1 1h1zm-3-8v4h3zM276 244l-1 2v11l-1 1-7-9h-2v-1l6-2-1 1v1l4 6v-8h-2v-1l4-2v1zM284 253h-3v1l-1 1-1-5v-1c1 3 3 4 5 3a2 2 0 0 0 1-3c-1-3-6 2-7-3a5 5 0 0 1 2-5 3 3 0 0 1 3 0v-2l2 5h-1c-1-2-2-3-4-2a2 2 0 0 0-1 3c1 2 6-2 7 2a5 5 0 0 1-2 6zM292 247v-1l1-1a1 1 0 0 0 0-1l-1-1-3 1v3h2l-3 3v-1l1-2-1-12h1l6 7 1 1 1-1v1zm-3-8v4l2-1zM300 239l-2 1v2l-2-5c1 2 2 3 4 1a3 3 0 0 0 0-3c-1-3-4 4-6-1a7 7 0 0 1 1-6l2-1v-2h1l1 4v1c-1-2-2-3-3-1a3 3 0 0 0-1 3c1 3 5-4 6 0a7 7 0 0 1-1 7z" class="cls-2"/></svg>